<?xml version="1.0" encoding="utf-8"?>
<!-- Generator: Adobe Illustrator 27.8.1, SVG Export Plug-In . SVG Version: 6.00 Build 0)  -->
<svg version="1.1" id="Layer_1" xmlns="http://www.w3.org/2000/svg" xmlns:xlink="http://www.w3.org/1999/xlink" x="0px" y="0px"
	 viewBox="0 0 1152.4 283.5" style="enable-background:new 0 0 1152.4 283.5;" xml:space="preserve">
<style type="text/css">
	.st0{fill:#00AEEF;}
</style>
<g>
	<path d="M144.6,23.7v101.7c-5.8-9.9-13.8-17.6-24.2-23C110,97,98,94.3,84.4,94.3c-16.6,0-31.3,4-44.1,11.9
		c-12.8,7.9-22.7,18.7-29.7,32.4C3.5,152.2,0,167.9,0,185.6c0,17.5,3.5,33.2,10.6,46.9c7,13.7,16.9,24.5,29.6,32.5
		c12.7,8,27.3,11.9,44,11.9c10.2,0,19.1-1.5,27-4.5c7.8-3,14.5-6.8,20.1-11.6c5.5-4.7,10-9.8,13.5-15.1l3.8,27h30.8V23.7H144.6z
		 M137.5,217.8c-4.5,9.2-10.9,16.4-19.2,21.5c-8.3,5.1-17.9,7.6-28.7,7.6c-10.4,0-19.7-2.5-28-7.6c-8.3-5.1-14.8-12.2-19.4-21.5
		c-4.6-9.2-6.9-19.9-6.9-32.2c0-12.2,2.3-22.9,6.9-32c4.6-9.1,11.1-16.3,19.4-21.4c8.3-5.2,17.7-7.8,28-7.8
		c10.8,0,20.4,2.6,28.7,7.8c8.3,5.2,14.7,12.3,19.2,21.4c4.5,9.1,6.8,19.8,6.8,32C144.3,197.8,142,208.6,137.5,217.8z"/>
	<path d="M355.2,136c-6.7-12.6-16.2-22.6-28.4-30.3c-12.2-7.6-26.9-11.4-43.9-11.4c-17.1,0-32.1,3.9-45,11.6
		c-12.9,7.8-23,18.5-30.3,32.2c-7.3,13.7-10.9,29.8-10.9,48.3c0,18,3.6,33.8,10.9,47.4s17.4,24.2,30.3,31.8
		c12.9,7.6,27.7,11.4,44.3,11.4c13.6,0,25.7-2.4,36.1-7.3c10.5-4.8,19.3-11.5,26.5-19.9c7.2-8.4,12.2-17.9,15.2-28.5h-34.6
		c-3.5,8.3-8.8,14.8-15.9,19.7c-7.2,4.8-16.3,7.3-27.3,7.3c-9.2,0-17.8-2.3-25.6-6.7c-7.8-4.5-14.1-11.2-18.9-20.1
		c-4.1-7.7-6.4-16.8-7-27.5h133.7c0.2-3.2,0.4-6.2,0.5-8.8c0.1-2.7,0.2-5.1,0.2-7.4C365.2,162.5,361.8,148.6,355.2,136z
		 M231.1,169.4c0.9-8.2,3.1-15.3,6.6-21.3c4.7-8.2,11-14.4,18.9-18.7c7.9-4.3,16.5-6.4,25.9-6.4c13.4,0,24.6,4.1,33.6,12.3
		c9,8.2,13.9,19.5,14.6,34.1H231.1z"/>
	<path d="M394.4,98.5h-36.3l62.3,166.2l15.9-46.7L394.4,98.5z"/>
	<path d="M643.8,233c-4.3,4.8-9.5,8.5-15.6,10.9c-6.1,2.4-13,3.6-20.6,3.6c-6.9,0-13.5-1.3-19.7-4c-6.2-2.7-11.7-6.6-16.4-11.9
		c-4.7-5.3-8.5-11.8-11.2-19.5c-2.8-7.8-4.1-16.6-4.1-26.5c0-13.4,2.4-24.6,7.1-33.7c4.7-9.1,11-16,18.9-20.8
		c7.9-4.7,16.4-7.1,25.6-7.1c11.3,0,21,2.8,29.2,8.3c8.2,5.6,13.4,13.4,15.7,23.5h36c-3.9-18.9-13-33.9-27.3-45
		C647,99.8,629.2,94.3,608,94.3c-16.8,0-31.8,3.9-45,11.6c-13.1,7.8-23.5,18.5-30.9,32.2c-7.5,13.7-11.2,29.7-11.2,47.9
		c0,18,3.7,33.8,11.2,47.4c7.5,13.6,17.8,24.3,30.9,32c13.2,7.7,28.1,11.6,45,11.6c21.2,0,39-5.6,53.3-16.8
		c14.3-11.2,23.4-26,27.3-44.4h-36C651,222.4,648.1,228.2,643.8,233z"/>
	<path d="M858.4,137.5c-7.5-13.6-17.7-24.2-30.6-31.8c-12.9-7.6-27.7-11.4-44.3-11.4c-16.4,0-31.1,3.8-44.3,11.4
		c-13.1,7.6-23.5,18.3-31.1,32c-7.6,13.7-11.4,29.8-11.4,48.3c0,18,3.7,33.8,11.2,47.6c7.5,13.7,17.8,24.4,30.8,32
		c13,7.6,27.7,11.4,44.1,11.4c16.6,0,31.5-3.8,44.7-11.4c13.1-7.6,23.4-18.2,30.9-31.8c7.5-13.6,11.2-29.6,11.2-48.1
		C869.6,167.2,865.9,151.1,858.4,137.5z M827.3,219.7c-4.7,9.1-11,16-18.7,20.6c-7.7,4.6-16.3,7-25.8,7c-9,0-17.4-2.3-25.1-7
		c-7.7-4.6-14-11.5-18.7-20.6c-4.7-9.1-7.1-20.5-7.1-34.1c0-13.6,2.4-25,7.1-34.1c4.7-9.1,11-16,18.9-20.6
		c7.8-4.6,16.4-6.9,25.6-6.9c9.2,0,17.7,2.3,25.4,6.9c7.7,4.6,13.9,11.5,18.5,20.6c4.6,9.1,6.9,20.5,6.9,34.1
		C834.4,199.2,832,210.6,827.3,219.7z"/>
	<path d="M956.9,98.8c-8.4,3-15.7,7.2-21.9,12.6c-6.2,5.4-11.3,12.1-15.2,19.9l-3.1-32.9h-31.2v174.4H920V186
		c0-10.6,1.4-19.5,4.1-26.6c2.8-7.1,6.6-12.8,11.6-17c5-4.1,10.7-7.1,17.1-8.8c6.4-1.7,13.2-2.6,20.4-2.6h12.4V94.3
		C974.9,94.3,965.3,95.8,956.9,98.8z"/>
	<path d="M1142.4,136c-6.7-12.6-16.2-22.6-28.4-30.3c-12.2-7.6-26.9-11.4-43.9-11.4c-17.1,0-32.1,3.9-45,11.6
		c-12.9,7.8-23,18.5-30.2,32.2c-7.3,13.7-10.9,29.8-10.9,48.3c0,18,3.6,33.8,10.9,47.4c7.2,13.6,17.3,24.2,30.2,31.8
		c12.9,7.6,27.7,11.4,44.3,11.4c13.6,0,25.7-2.4,36.2-7.3c10.5-4.8,19.3-11.5,26.5-19.9c7.1-8.4,12.2-17.9,15.2-28.5h-34.6
		c-3.5,8.3-8.7,14.8-15.9,19.7c-7.1,4.8-16.3,7.3-27.3,7.3c-9.2,0-17.8-2.3-25.6-6.7c-7.9-4.5-14.2-11.2-18.9-20.1
		c-4.1-7.7-6.4-16.8-7-27.5h133.7c0.2-3.2,0.4-6.2,0.5-8.8c0.1-2.7,0.2-5.1,0.2-7.4C1152.4,162.5,1149.1,148.6,1142.4,136z
		 M1018.4,169.4c0.9-8.2,3.1-15.3,6.6-21.3c4.7-8.2,11-14.4,18.9-18.7c7.8-4.3,16.5-6.4,25.9-6.4c13.4,0,24.6,4.1,33.6,12.3
		c9,8.2,13.8,19.5,14.5,34.1H1018.4z"/>
	<path class="st0" d="M528.1,0l-99.3,283.5h33.7L562.9,0H528.1z"/>
</g>
</svg>
