<svg xmlns="http://www.w3.org/2000/svg" viewBox="0 0 466 118" fill="none">
  <title>AskQet — TIRI lockup</title>
  <rect width="466" height="118" fill="#0B0C0E"/>
  <g transform="translate(12,84)"><g transform="translate(0,-66) scale(1) translate(-16,-16)">  <circle cx="56" cy="56" r="26" fill="none" stroke="#F6F2E8" stroke-width="9"/>
  <g stroke="#F6F2E8" stroke-width="4.2" stroke-linecap="butt">
    <line x1="56" y1="25" x2="56" y2="18.262" opacity="1"/>
    <line x1="60.412" y1="25.316" x2="62.124" y2="13.407" opacity="1"/>
    <line x1="64.734" y1="26.256" x2="67.653" y2="16.314" opacity="1"/>
    <line x1="68.878" y1="27.801" x2="72.75" y2="19.324" opacity="1"/>
    <line x1="72.76" y1="29.921" x2="76.862" y2="23.538" opacity="1"/>
    <line x1="76.301" y1="32.572" x2="84.698" y2="22.881" opacity="1"/>
    <line x1="79.428" y1="35.699" x2="88.612" y2="27.741" opacity="1"/>
    <line x1="82.079" y1="39.24" x2="90.311" y2="33.95" opacity="1"/>
    <line x1="84.199" y1="43.122" x2="93.27" y2="38.979" opacity="1"/>
    <line x1="85.744" y1="47.266" x2="94.557" y2="44.679" opacity="0.947"/>
    <line x1="86.684" y1="51.588" x2="90.186" y2="51.085" opacity="0.784"/>
    <line x1="87" y1="56" x2="91.688" y2="56" opacity="0.62"/>
    <line x1="86.684" y1="60.412" x2="88.829" y2="60.72" opacity="0.456"/>
    <line x1="60.412" y1="86.684" x2="60.785" y2="89.283" opacity="0.456"/>
    <line x1="56" y1="87" x2="56" y2="89.388" opacity="0.62"/>
    <line x1="51.588" y1="86.684" x2="50.524" y2="94.086" opacity="0.784"/>
    <line x1="47.266" y1="85.744" x2="43.662" y2="98.019" opacity="0.947"/>
    <line x1="43.122" y1="84.199" x2="40.145" y2="90.718" opacity="1"/>
    <line x1="39.24" y1="82.079" x2="32.603" y2="92.406" opacity="1"/>
    <line x1="35.699" y1="79.428" x2="31.462" y2="84.319" opacity="1"/>
    <line x1="32.572" y1="76.301" x2="22.246" y2="85.248" opacity="1"/>
    <line x1="29.921" y1="72.76" x2="24.292" y2="76.377" opacity="1"/>
    <line x1="27.801" y1="68.878" x2="20.283" y2="72.311" opacity="1"/>
    <line x1="26.256" y1="64.734" x2="16.32" y2="67.651" opacity="1"/>
    <line x1="25.316" y1="60.412" x2="16.908" y2="61.621" opacity="1"/>
    <line x1="25" y1="56" x2="16.159" y2="56" opacity="1"/>
    <line x1="25.316" y1="51.588" x2="15.005" y2="50.106" opacity="1"/>
    <line x1="26.256" y1="47.266" x2="20.414" y2="45.551" opacity="1"/>
    <line x1="27.801" y1="43.122" x2="17.726" y2="38.521" opacity="1"/>
    <line x1="29.921" y1="39.24" x2="18.037" y2="31.603" opacity="1"/>
    <line x1="32.572" y1="35.699" x2="27.006" y2="30.877" opacity="1"/>
    <line x1="35.699" y1="32.572" x2="30.794" y2="26.911" opacity="1"/>
    <line x1="39.24" y1="29.921" x2="32.519" y2="19.463" opacity="1"/>
    <line x1="43.122" y1="27.801" x2="37.675" y2="15.873" opacity="1"/>
    <line x1="47.266" y1="26.256" x2="44.145" y2="15.626" opacity="1"/>
    <line x1="51.588" y1="25.316" x2="50.769" y2="19.615" opacity="1"/>
  </g>
  <rect x="74" y="74" width="38" height="38" rx="2" fill="#F2A93B"/>
</g><g transform="translate(136,0)"><rect x="9" y="-63" width="7.6" height="7.6" fill="#F6F2E8"/><rect x="18" y="-63" width="7.6" height="7.6" fill="#F6F2E8"/><rect x="27" y="-63" width="7.6" height="7.6" fill="#F6F2E8"/><rect x="0" y="-54" width="7.6" height="7.6" fill="#F6F2E8"/><rect x="36" y="-54" width="7.6" height="7.6" fill="#F6F2E8"/><rect x="0" y="-45" width="7.6" height="7.6" fill="#F6F2E8"/><rect x="36" y="-45" width="7.6" height="7.6" fill="#F6F2E8"/><rect x="0" y="-36" width="7.6" height="7.6" fill="#F6F2E8"/><rect x="9" y="-36" width="7.6" height="7.6" fill="#F6F2E8"/><rect x="18" y="-36" width="7.6" height="7.6" fill="#F6F2E8"/><rect x="27" y="-36" width="7.6" height="7.6" fill="#F6F2E8"/><rect x="36" y="-36" width="7.6" height="7.6" fill="#F6F2E8"/><rect x="0" y="-27" width="7.6" height="7.6" fill="#F6F2E8"/><rect x="36" y="-27" width="7.6" height="7.6" fill="#F6F2E8"/><rect x="0" y="-18" width="7.6" height="7.6" fill="#F6F2E8"/><rect x="36" y="-18" width="7.6" height="7.6" fill="#F6F2E8"/><rect x="0" y="-9" width="7.6" height="7.6" fill="#F6F2E8"/><rect x="36" y="-9" width="7.6" height="7.6" fill="#F6F2E8"/><rect x="61.2" y="-63" width="7.6" height="7.6" fill="#F6F2E8"/><rect x="70.2" y="-63" width="7.6" height="7.6" fill="#F6F2E8"/><rect x="79.2" y="-63" width="7.6" height="7.6" fill="#F6F2E8"/><rect x="88.2" y="-63" width="7.6" height="7.6" fill="#F6F2E8"/><rect x="52.2" y="-54" width="7.6" height="7.6" fill="#F6F2E8"/><rect x="52.2" y="-45" width="7.6" height="7.6" fill="#F6F2E8"/><rect x="61.2" y="-36" width="7.6" height="7.6" fill="#F6F2E8"/><rect x="70.2" y="-36" width="7.6" height="7.6" fill="#F6F2E8"/><rect x="79.2" y="-36" width="7.6" height="7.6" fill="#F6F2E8"/><rect x="88.2" y="-27" width="7.6" height="7.6" fill="#F6F2E8"/><rect x="88.2" y="-18" width="7.6" height="7.6" fill="#F6F2E8"/><rect x="52.2" y="-9" width="7.6" height="7.6" fill="#F6F2E8"/><rect x="61.2" y="-9" width="7.6" height="7.6" fill="#F6F2E8"/><rect x="70.2" y="-9" width="7.6" height="7.6" fill="#F6F2E8"/><rect x="79.2" y="-9" width="7.6" height="7.6" fill="#F6F2E8"/><rect x="104.4" y="-63" width="7.6" height="7.6" fill="#F6F2E8"/><rect x="140.4" y="-63" width="7.6" height="7.6" fill="#F6F2E8"/><rect x="104.4" y="-54" width="7.6" height="7.6" fill="#F6F2E8"/><rect x="131.4" y="-54" width="7.6" height="7.6" fill="#F6F2E8"/><rect x="104.4" y="-45" width="7.6" height="7.6" fill="#F6F2E8"/><rect x="122.4" y="-45" width="7.6" height="7.6" fill="#F6F2E8"/><rect x="104.4" y="-36" width="7.6" height="7.6" fill="#F6F2E8"/><rect x="113.4" y="-36" width="7.6" height="7.6" fill="#F6F2E8"/><rect x="104.4" y="-27" width="7.6" height="7.6" fill="#F6F2E8"/><rect x="122.4" y="-27" width="7.6" height="7.6" fill="#F6F2E8"/><rect x="104.4" y="-18" width="7.6" height="7.6" fill="#F6F2E8"/><rect x="131.4" y="-18" width="7.6" height="7.6" fill="#F6F2E8"/><rect x="104.4" y="-9" width="7.6" height="7.6" fill="#F6F2E8"/><rect x="140.4" y="-9" width="7.6" height="7.6" fill="#F6F2E8"/><rect x="165.6" y="-63" width="7.6" height="7.6" fill="#F6F2E8"/><rect x="174.6" y="-63" width="7.6" height="7.6" fill="#F6F2E8"/><rect x="183.6" y="-63" width="7.6" height="7.6" fill="#F6F2E8"/><rect x="156.6" y="-54" width="7.6" height="7.6" fill="#F6F2E8"/><rect x="192.6" y="-54" width="7.6" height="7.6" fill="#F6F2E8"/><rect x="156.6" y="-45" width="7.6" height="7.6" fill="#F6F2E8"/><rect x="192.6" y="-45" width="7.6" height="7.6" fill="#F6F2E8"/><rect x="156.6" y="-36" width="7.6" height="7.6" fill="#F6F2E8"/><rect x="192.6" y="-36" width="7.6" height="7.6" fill="#F6F2E8"/><rect x="156.6" y="-27" width="7.6" height="7.6" fill="#F6F2E8"/><rect x="174.6" y="-27" width="7.6" height="7.6" fill="#F6F2E8"/><rect x="192.6" y="-27" width="7.6" height="7.6" fill="#F6F2E8"/><rect x="156.6" y="-18" width="7.6" height="7.6" fill="#F6F2E8"/><rect x="183.6" y="-18" width="7.6" height="7.6" fill="#F6F2E8"/><rect x="165.6" y="-9" width="7.6" height="7.6" fill="#F6F2E8"/><rect x="174.6" y="-9" width="7.6" height="7.6" fill="#F6F2E8"/><rect x="192.6" y="-9" width="7.6" height="7.6" fill="#F6F2E8"/><rect x="165.6" y="0" width="7.6" height="7.6" fill="#F6F2E8"/><rect x="165.6" y="9" width="7.6" height="7.6" fill="#F6F2E8"/><rect x="208.8" y="-63" width="7.6" height="7.6" fill="#F6F2E8"/><rect x="217.8" y="-63" width="7.6" height="7.6" fill="#F6F2E8"/><rect x="226.8" y="-63" width="7.6" height="7.6" fill="#F6F2E8"/><rect x="235.8" y="-63" width="7.6" height="7.6" fill="#F6F2E8"/><rect x="244.8" y="-63" width="7.6" height="7.6" fill="#F6F2E8"/><rect x="208.8" y="-54" width="7.6" height="7.6" fill="#F6F2E8"/><rect x="208.8" y="-45" width="7.6" height="7.6" fill="#F6F2E8"/><rect x="208.8" y="-36" width="7.6" height="7.6" fill="#F6F2E8"/><rect x="217.8" y="-36" width="7.6" height="7.6" fill="#F6F2E8"/><rect x="226.8" y="-36" width="7.6" height="7.6" fill="#F6F2E8"/><rect x="235.8" y="-36" width="7.6" height="7.6" fill="#F6F2E8"/><rect x="208.8" y="-27" width="7.6" height="7.6" fill="#F6F2E8"/><rect x="208.8" y="-18" width="7.6" height="7.6" fill="#F6F2E8"/><rect x="208.8" y="-9" width="7.6" height="7.6" fill="#F6F2E8"/><rect x="217.8" y="-9" width="7.6" height="7.6" fill="#F6F2E8"/><rect x="226.8" y="-9" width="7.6" height="7.6" fill="#F6F2E8"/><rect x="235.8" y="-9" width="7.6" height="7.6" fill="#F6F2E8"/><rect x="244.8" y="-9" width="7.6" height="7.6" fill="#F6F2E8"/><rect x="261" y="-63" width="7.6" height="7.6" fill="#F6F2E8"/><rect x="270" y="-63" width="7.6" height="7.6" fill="#F6F2E8"/><rect x="279" y="-63" width="7.6" height="7.6" fill="#F6F2E8"/><rect x="288" y="-63" width="7.6" height="7.6" fill="#F6F2E8"/><rect x="297" y="-63" width="7.6" height="7.6" fill="#F6F2E8"/><rect x="279" y="-54" width="7.6" height="7.6" fill="#F6F2E8"/><rect x="279" y="-45" width="7.6" height="7.6" fill="#F6F2E8"/><rect x="279" y="-36" width="7.6" height="7.6" fill="#F6F2E8"/><rect x="279" y="-27" width="7.6" height="7.6" fill="#F6F2E8"/><rect x="279" y="-18" width="7.6" height="7.6" fill="#F6F2E8"/><rect x="279" y="-9" width="7.6" height="7.6" fill="#F6F2E8"/></g></g>
</svg>
