<svg xmlns="http://www.w3.org/2000/svg" viewBox="0 0 440.06 118" fill="none">
  <title>AskQet</title>
  <rect width="440.06" height="118" fill="#0A0810"/>
  <g transform="translate(12,84)"><g transform="translate(0,-66) scale(0.86) translate(-16,-16)">  <g fill="none" stroke-width="13" stroke-linecap="round">
    <path d="M12,88 C34,88 36,26 60,26" stroke="#C724B1"/>
    <path d="M60,26 C80,26 78,94 98,94" stroke="#FFB800"/>
  </g>
  <circle cx="112" cy="94" r="9" fill="#FFB800"/>
</g><g transform="translate(116.56,0)"><g transform="translate(0,0)"><g stroke="#F2EEF6" stroke-width="9" stroke-linecap="round" stroke-linejoin="round" fill="none"><circle cx="23" cy="-23" r="18.5"/><path d="M41.5,-37 L41.5,-4.5"/></g></g><g transform="translate(58,0)"><g stroke="#F2EEF6" stroke-width="9" stroke-linecap="round" stroke-linejoin="round" fill="none"><path d="M30.5,-32.2 A13,9.2 0 1 0 17.5,-23"/><path d="M17.5,-23 A13,9.2 0 1 1 4.5,-13.8"/></g></g><g transform="translate(105,0)"><g stroke="#F2EEF6" stroke-width="9" stroke-linecap="round" stroke-linejoin="round" fill="none"><path d="M4.5,-59.5 L4.5,-4.5"/><path d="M36,-41.5 L4.5,-16"/><path d="M15,-24.5 L36,-4.5"/></g></g><g transform="translate(157.5,0)"><g stroke="#F2EEF6" stroke-width="9" stroke-linecap="round" stroke-linejoin="round" fill="none"><circle cx="23" cy="-23" r="18.5"/><path d="M41.5,-37 L41.5,14.5"/></g></g><g transform="translate(215.5,0)"><g stroke="#F2EEF6" stroke-width="9" stroke-linecap="round" stroke-linejoin="round" fill="none"><path d="M41.5,-23 A18.5,18.5 0 1 0 37.172,-11.108"/><path d="M4.5,-23 L41.5,-23"/></g></g><g transform="translate(273.5,0)"><g stroke="#F2EEF6" stroke-width="9" stroke-linecap="round" stroke-linejoin="round" fill="none"><path d="M11,-53.5 L11,-4.5"/><path d="M4.5,-37 L21.5,-37"/></g></g></g></g>
</svg>
